# xmcd
#
# Track frame offsets: 
#        150
#        3647
#        9545
#        14662
#        19729
#        24836
#        29918
#        35003
#        40943
#        48910
#        54883
#        61608
#        66139
#        72100
#        75882
#        78819
#        84848
#        90100
#        95306
#        99054
#        102049
#        105741
#        111753
#        116251
#        127183
#        133068
#        135895
#        140123
#        144246
#        148403
#        156154
#        160762
#        164611
#        168507
#        174961
#        178165
#        181963
#        188458
#        192335
#        196221
#        200686
#        207758
#        215048
#        219593
#        224998
#        230148
#        236238
#        240244
#        248181
#        255051
#        260985
#        266937
#        272855
#        283659
#        291893
#        300001
#        304641
#        312463
#
# Disc length: 4326 seconds
#
# Revision: 0
# Processed by: cddbd v1.5.2PL0 Copyright (c) Steve Scherf et al.
# Submitted via: ExactAudioCopy v0.95b4
#
DISCID=3510e43a
DTITLE=Various Artist - Phlatline Sound - Newstah
DYEAR=2007
DGENRE=Dance Hall
TTITLE0=newstah/intro
TTITLE1=chico/dont you
TTITLE2=ill inspecta/seet seh
TTITLE3=rebellion the recaller/straight
TTITLE4=black kappa/outtadoor
TTITLE5=ryno/me glad
TTITLE6=sojah/party all day
TTITLE7=choppa chop/stressfree
TTITLE8=sean paul and wyclef jean/top a list
TTITLE9=tanto metro and devonte/shotta
TTITLE10=ward 21/gully gun
TTITLE11=sizzla/ghetto youths
TTITLE12=tony matterhorn/man from mars
TTITLE13=tony matterhorn/goodas
TTITLE14=mavado/nuh chatty thing
TTITLE15=mavado/last night
TTITLE16=bounty killer/bulletproof skin
TTITLE17=beenie man/bulletproof vest
TTITLE18=tony matterhorn and mr. easy/wickedest ride
TTITLE19=tony matterhorn/not forgotten
TTITLE20=mavado/seems so clear
TTITLE21=bounty killer/four seasons
TTITLE22=sizzla/operate
TTITLE23=elephant man/chuck off
TTITLE24=shaggy/church heathen
TTITLE25=sean paul/all out
TTITLE26=leftside and esco/negative
TTITLE27=assassin/hotta dan har
TTITLE28=idonia/ukku
TTITLE29=bounty killer/politician
TTITLE30=elephant man/wave ur flags
TTITLE31=tony matterhorn/march out
TTITLE32=burru banton/da streetz
TTITLE33=choppa chop/where we live
TTITLE34=mavado/u cant escape
TTITLE35=bunji garlin/brrrt
TTITLE36=wayne wonder/no time to talk
TTITLE37=wayne wonder/u got me
TTITLE38=voicemail/shake it
TTITLE39=shaggy/give u
TTITLE40=elephant man/limbo
TTITLE41=elephant man/walk out
TTITLE42=elephant man/love tell lie
TTITLE43=wyclef jean and yxia/belly dance
TTITLE44=voicemail/wine girl wine
TTITLE45=tanto metro and devonte/how yuh like it
TTITLE46=red rat/compliments
TTITLE47=general degree/elegant
TTITLE48=wayne marshall and esco and future famo/top class
TTITLE49=voicemail/nah go get away
TTITLE50=dr. evil/stay far
TTITLE51=elephant man/bomb rush dem
TTITLE52=sizzla/wi nuh miss it
TTITLE53=busy signal/dem team up
TTITLE54=mavado/dont cry
TTITLE55=mavado/dreaming
TTITLE56=bounty killer/the highest
TTITLE57=busy signal/man a thug
EXTD=
EXTT0=
EXTT1=
EXTT2=
EXTT3=
EXTT4=
EXTT5=
EXTT6=
EXTT7=
EXTT8=
EXTT9=
EXTT10=
EXTT11=
EXTT12=
EXTT13=
EXTT14=
EXTT15=
EXTT16=
EXTT17=
EXTT18=
EXTT19=
EXTT20=
EXTT21=
EXTT22=
EXTT23=
EXTT24=
EXTT25=
EXTT26=
EXTT27=
EXTT28=
EXTT29=
EXTT30=
EXTT31=
EXTT32=
EXTT33=
EXTT34=
EXTT35=
EXTT36=
EXTT37=
EXTT38=
EXTT39=
EXTT40=
EXTT41=
EXTT42=
EXTT43=
EXTT44=
EXTT45=
EXTT46=
EXTT47=
EXTT48=
EXTT49=
EXTT50=
EXTT51=
EXTT52=
EXTT53=
EXTT54=
EXTT55=
EXTT56=
EXTT57=
PLAYORDER=
